<svg width="24" height="24" viewBox="0 0 24 24" fill="none" xmlns="http://www.w3.org/2000/svg">
<path d="M13.77 20.5698C8.9 20.4498 5 16.5598 5 11.7898C5 7.01977 8.9 3.12977 13.77 3.00977C11.32 3.24977 9.37 7.08977 9.37 11.7898C9.37 16.4898 11.32 20.3298 13.77 20.5698Z" stroke="#667085" stroke-width="2" stroke-miterlimit="10"/>
<path d="M18.6501 11.79C18.6501 16.49 16.7001 20.33 14.2501 20.57C14.1701 20.58 14.0901 20.58 14.0101 20.58C13.9301 20.58 13.8501 20.58 13.7701 20.57C11.3201 20.33 9.37012 16.49 9.37012 11.79C9.37012 7.09 11.3201 3.25 13.7701 3.01C13.8501 3 13.9301 3 14.0101 3C14.0901 3 14.1701 3 14.2501 3.01C16.7001 3.25 18.6501 7.09 18.6501 11.79Z" stroke="#667085" stroke-width="2" stroke-miterlimit="10"/>
</svg>
