<svg width="24" height="24" viewBox="0 0 24 24" fill="none" xmlns="http://www.w3.org/2000/svg">
<path d="M15.0598 12.08C15.0598 16.93 13.9498 20.9 12.5598 21.15C12.5098 21.16 12.4698 21.16 12.4198 21.16C12.3698 21.16 12.3298 21.16 12.2798 21.15C10.8898 20.9 9.77979 16.94 9.77979 12.08C9.77979 7.22 10.8998 3.26 12.2898 3.01C12.3398 3 12.3798 3 12.4298 3C12.4798 3 12.5198 3 12.5698 3.01C13.9598 3.26 15.0698 7.22 15.0698 12.08H15.0598Z" stroke="#667085" stroke-width="2" stroke-miterlimit="10"/>
<path d="M2 6.03906H10.05" stroke="#667085" stroke-width="2" stroke-miterlimit="10" stroke-linecap="round"/>
<path d="M2 12.0801H9.47" stroke="#667085" stroke-width="2" stroke-miterlimit="10" stroke-linecap="round"/>
<path d="M2 18.1094H10" stroke="#667085" stroke-width="2" stroke-miterlimit="10" stroke-linecap="round"/>
<path d="M14.3999 6.03906L22.5299 12.0791" stroke="#667085" stroke-width="2" stroke-miterlimit="10" stroke-linecap="round"/>
<path d="M15.0601 12.0801H22.5301" stroke="#667085" stroke-width="2" stroke-miterlimit="10" stroke-linecap="round"/>
<path d="M14.4502 17.9201L22.5302 12.0801" stroke="#667085" stroke-width="2" stroke-miterlimit="10" stroke-linecap="round"/>
</svg>
